<svg width="32px" height="33px" viewBox="0 0 32 33" version="1.1" xmlns="http://www.w3.org/2000/svg" xmlns:xlink="http://www.w3.org/1999/xlink">
    <!-- Generator: Sketch 39.1 (31720) - http://www.bohemiancoding.com/sketch -->
      <g id="email" stroke="none" stroke-width="1" fill="none" fill-rule="evenodd">
        <g id="email-1" transform="translate(-225.000000, -22.000000)" fill="#FFFFFF">
            <path d="M255.012044,27 L227.261393,27 C226.504557,27 226,27.5 226,28.25 L226,32 C226,32.5 226.252279,32.875 226.630697,33.125 L240.506022,40.625 C240.758301,40.75 240.88444,40.75 241.136719,40.75 C241.388997,40.75 241.515137,40.75 241.767415,40.625 L255.642741,33.125 C256.021159,32.875 256.273438,32.5 256.273438,32 L256.273438,28.25 C256.273438,27.5 255.76888,27 255.012044,27 L255.012044,27 Z" id="email-2"></path>
            <path d="M242.902669,41.75 C242.398112,42.125 241.767415,42.25 241.136719,42.25 C240.506022,42.25 239.875326,42.125 239.370768,41.75 L226,34.625 L226,49.75 C226,50.5 226.504557,51 227.261393,51 L255.012044,51 C255.76888,51 256.273438,50.5 256.273438,49.75 L256.273438,34.625 L242.902669,41.75 L242.902669,41.75 Z" id="email-3"></path>
        </g>
    </g>
</svg>
