<svg width="25px" height="33px" viewBox="0 0 25 33" version="1.1" xmlns="http://www.w3.org/2000/svg" xmlns:xlink="http://www.w3.org/1999/xlink">
    <!-- Generator: Sketch 39.1 (31720) - http://www.bohemiancoding.com/sketch -->
    <g id="facebook" stroke="none" stroke-width="1" fill="none" fill-rule="evenodd">
        <g id="facebook-1" transform="translate(-13.000000, -22.000000)" fill="#FFFFFF">
            <path d="M30.4828967,51 L36.3981069,51 C37.27876,51 38,50.282808 38,49.3981069 L38,27.6018931 C38,26.72124 37.282808,26 36.3981069,26 L14.6018931,26 C13.72124,26 13,26.717192 13,27.6018931 L13,49.3981069 C13,50.27876 13.717192,51 14.6018931,51 L26.0486677,51 L26.0486677,41.165821 L23.8333333,41.165821 L23.8333333,37.4321572 L26.0486677,37.4321572 L26.0486677,35.190479 C26.0486677,32.144562 27.2995839,30.3333333 30.8535851,30.3333333 L33.8123905,30.3333333 L33.8123905,34.06742 L31.9629277,34.06742 C30.5794432,34.06742 30.487923,34.5892027 30.487923,35.5629997 L30.4828967,37.4317344 L33.8333333,37.4317344 L33.4412832,41.1653982 L30.4828967,41.1653982 L30.4828967,51 Z" id="facebook-Shape"></path>
        </g>
    </g>
</svg>
