<svg width="26px" height="33px" viewBox="0 0 26 33" version="1.1" xmlns="http://www.w3.org/2000/svg" xmlns:xlink="http://www.w3.org/1999/xlink">
    <!-- Generator: Sketch 39.1 (31720) - http://www.bohemiancoding.com/sketch -->
    <g id="instagram" stroke="none" stroke-width="1" fill="none" fill-rule="evenodd">
        <g id="instagram-1" transform="translate(-63.000000, -22.000000)" fill="#FFFFFF">
            <path d="M74.8199126,27.0038125 C75.2259413,27.0031771 75.6789907,27.0038125 76.1879564,27.0038125 C80.2596818,27.0038125 80.7422778,27.018427 82.35019,27.0914994 C83.837056,27.1594886 84.6440303,27.407935 85.1815895,27.6166681 C85.8932519,27.8930727 86.400629,28.2234874 86.9340581,28.7572342 C87.4678049,29.290981 87.7982196,29.7993112 88.0752596,30.5109736 C88.2839927,31.0478974 88.5327568,31.8548717 88.6004283,33.3417377 C88.6735007,34.9493322 88.689386,35.4322459 88.689386,39.5020651 C88.689386,43.5718843 88.6735007,44.054798 88.6004283,45.6623925 C88.5324391,47.1492585 88.2839927,47.9562328 88.0752596,48.4931566 C87.798855,49.204819 87.4678049,49.7115607 86.9340581,50.2449898 C86.4003113,50.7787365 85.8935696,51.1091512 85.1815895,51.3855558 C84.6446657,51.595242 83.837056,51.843053 82.35019,51.9110422 C80.7425955,51.9841147 80.2596818,52 76.1879564,52 C72.1159133,52 71.6333172,51.9841147 70.0257228,51.9110422 C68.5388568,51.8424176 67.7318825,51.5939712 67.1940055,51.3852381 C66.4823431,51.1088335 65.9740129,50.7784188 65.4402661,50.2446721 C64.9065193,49.7109253 64.5761047,49.2038659 64.2990647,48.4918858 C64.0903315,47.9549619 63.8415674,47.1479876 63.773896,45.6611216 C63.7008235,44.0535272 63.686209,43.5706134 63.686209,39.4982526 C63.686209,35.4258918 63.7008235,34.9455197 63.773896,33.3379253 C63.8418851,31.8510592 64.0903315,31.0440849 64.2990647,30.5065257 C64.5754692,29.7948633 64.9065193,29.2865331 65.4402661,28.7527863 C65.9740129,28.2190395 66.4823431,27.8886248 67.1940055,27.6115848 C67.7315648,27.4018986 68.5388568,27.1540876 70.0257228,27.0857807 C71.4325268,27.0222394 71.977711,27.0031771 74.8199126,27 L74.8199126,27.0038125 Z M83.2096009,30.8839284 C82.3262546,30.8839284 81.6095775,31.5997723 81.6095775,32.4833963 C81.6095775,33.3667426 82.3262546,34.0834198 83.2096009,34.0834198 C84.0929472,34.0834198 84.8096243,33.3667426 84.8096243,32.4833963 C84.8096243,31.60005 84.0929472,30.8833729 83.2096009,30.8833729 L83.2096009,30.8839284 Z M76.0922744,32.7534003 C72.3108301,32.7534003 69.2449518,35.8192785 69.2449518,39.6007228 C69.2449518,43.3821671 72.3108301,46.4466565 76.0922744,46.4466565 C79.8737187,46.4466565 82.9384858,43.3821671 82.9384858,39.6007228 C82.9384858,35.8192785 79.8734409,32.7534003 76.0919966,32.7534003 L76.0922744,32.7534003 Z M76.0922744,35.1562133 C78.5467548,35.1562133 80.536784,37.1459646 80.536784,39.6007228 C80.536784,42.0552032 78.5467548,44.0452324 76.0922744,44.0452324 C73.6375162,44.0452324 71.6477648,42.0552032 71.6477648,39.6007228 C71.6477648,37.1459646 73.6375162,35.1562133 76.0922744,35.1562133 L76.0922744,35.1562133 Z" id="instagram-shape"></path>
        </g>
    </g>
</svg>
