<svg width="29px" height="33px" viewBox="0 0 29 33" version="1.1" xmlns="http://www.w3.org/2000/svg" xmlns:xlink="http://www.w3.org/1999/xlink">
    <!-- Generator: Sketch 39.1 (31720) - http://www.bohemiancoding.com/sketch -->
    <g id="medium" stroke="none" stroke-width="1" fill="none" fill-rule="evenodd">
        <g id="medium-1" transform="translate(-170.000000, -22.000000)" stroke="#04131F" fill="#FFFFFF">
            <path d="M189.810792,26.0284737 C189.66433,25.9547149 189.54456,26.0292733 189.54456,26.1941813 L189.54456,46.4744719 L198.361251,50.9145958 C198.800538,51.1358724 199.159945,50.9120972 199.159945,50.4173731 L199.159945,30.8954596 C199.159945,30.7982138 199.105369,30.7092635 199.01904,30.6657877 L189.810792,26.0284737" id="medium-6"></path>
            <path d="M179.929176,41.4176708 L189.433915,26.1519591 C189.52016,26.0135025 189.711094,25.9596965 189.858258,26.0324232 L199.039456,30.5696635 C199.153817,30.6261302 199.194597,30.7674447 199.127595,30.8750566 L189.590651,46.1923077 L179.929176,41.4176708" id="medium-7"></path>
            <path d="M170.937939,26.1315756 C170.337978,25.8363913 170.134704,26.0548537 170.486265,26.6171144 L179.695867,41.3458229 L189.54456,46.1923077 L179.759492,30.5431362 C179.717922,30.4765171 179.65816,30.4228018 179.587218,30.3877918 L170.937939,26.1315756" id="medium-9"></path>
            <path d="M179.929176,50.4149024 C179.929176,50.9117244 179.569673,51.1364486 179.130391,50.9142336 L170.846347,46.7245683 C170.553426,46.576425 170.313791,46.1842868 170.313791,45.8530721 L170.313791,26.3900929 C170.313791,26.0588781 170.553426,25.9090286 170.846347,26.0571719 L179.810598,30.5908991 C179.883233,30.6276338 179.929176,30.7027091 179.929176,30.7849106 L179.929176,50.4149024" id="medium-10"></path>
        </g>
    </g>
</svg>
