<svg width="31px" height="33px" viewBox="0 0 31 33" version="1.1" xmlns="http://www.w3.org/2000/svg" xmlns:xlink="http://www.w3.org/1999/xlink">
    <!-- Generator: Sketch 39.1 (31720) - http://www.bohemiancoding.com/sketch -->
    <g id="twitter" stroke="none" stroke-width="1" fill="none" fill-rule="evenodd">
        <g id="twitter" transform="translate(-114.000000, -22.000000)" fill="#FFFFFF">
            <path d="M129.064661,33.6503914 L129.130237,34.7317119 L128.037301,34.5993053 C124.059012,34.0917467 120.583474,32.3704611 117.632546,29.4795838 L116.18987,28.045179 L115.818271,29.1044318 C115.031357,31.4656827 115.534108,33.9593402 117.173512,35.6364903 C118.047862,36.5633365 117.851133,36.6957431 116.342881,36.1440489 C115.818271,35.9675068 115.359238,35.8351002 115.31552,35.9013035 C115.162509,36.0557779 115.687119,38.0639445 116.102435,38.8583841 C116.670762,39.9617723 117.829274,41.0430928 119.097081,41.683058 L120.168158,42.1906166 L118.900352,42.2126844 C117.676263,42.2126844 117.632546,42.2347522 117.763698,42.6981752 C118.200873,44.13258 119.927712,45.6552558 121.85128,46.3172887 L123.206522,46.7807118 L122.02615,47.4868803 C120.277452,48.5019975 118.222731,49.0757594 116.168011,49.1198949 C115.184368,49.1419627 114.375595,49.2302338 114.375595,49.2964371 C114.375595,49.5171147 117.04236,50.7529096 118.59433,51.2384004 C123.250239,52.6728052 128.780497,52.0549077 132.933656,49.6053858 C135.884584,47.8620323 138.835513,44.3973932 140.212613,41.0430928 C140.95581,39.2556038 141.699006,35.9895746 141.699006,34.4227632 C141.699006,33.407646 141.764583,33.2752394 142.988671,32.0615123 C143.710009,31.3553438 144.38763,30.5829721 144.518782,30.3622944 C144.73737,29.9430069 144.715511,29.9430069 143.600716,30.3181589 C141.742724,30.9801918 141.480419,30.8919208 142.398486,29.8988713 C143.076106,29.1927028 143.884879,27.9127725 143.884879,27.5376204 C143.884879,27.4714171 143.556998,27.581756 143.1854,27.7803659 C142.791943,28.0010435 141.917594,28.33206 141.261832,28.5306699 L140.08146,28.9058219 L139.010383,28.1775856 C138.420197,27.7803659 137.589565,27.3390106 137.152391,27.206604 C136.037596,26.8976552 134.332615,26.9417908 133.327113,27.294875 C130.594772,28.2879245 128.867932,30.8477852 129.064661,33.6503914 Z" id="twitter-shape"></path>
        </g>
    </g>
</svg>
