<?xml version="1.0" encoding="UTF-8" standalone="no"?>
<svg width="141px" height="33px" viewBox="0 0 141 33" version="1.1" xmlns="http://www.w3.org/2000/svg" xmlns:xlink="http://www.w3.org/1999/xlink">
    <!-- Generator: Sketch 39.1 (31720) - http://www.bohemiancoding.com/sketch -->
    <title>unsplash</title>
    <desc>Created with Sketch.</desc>
    <defs></defs>
    <g id="Stuff" stroke="none" stroke-width="1" fill="none" fill-rule="evenodd">
        <g id="Icons" transform="translate(-306.000000, -22.000000)" fill="#FFFFFF">
            <path d="M321.997846,34.2396456 C323.23726,34.2396456 324.296992,34.6849509 325.177077,35.5755827 C326.057166,36.4662109 326.497203,37.538638 326.497203,38.7928993 C326.497203,40.047157 326.057166,41.1195876 325.177077,42.0102159 C324.296992,42.9008441 323.23726,43.346153 321.997846,43.346153 C320.758436,43.346153 319.698701,42.9008441 318.818616,42.0102159 C317.93853,41.1195876 317.498493,40.047157 317.498493,38.7928993 C317.498493,37.538638 317.93853,36.4662109 318.818616,35.5755827 C319.698701,34.6849509 320.758436,34.2396456 321.997846,34.2396456 L321.997846,34.2396456 Z M332.996267,27.6627216 C334.100282,27.6627216 335.042847,28.0579654 335.823987,28.8484635 C336.605131,29.6389652 336.995696,30.5928184 336.995696,31.7100586 L336.995696,45.8757399 C336.995696,46.9929787 336.605131,47.9468341 335.823987,48.7373336 C335.042847,49.5278332 334.100282,49.9230769 332.996267,49.9230769 L310.999425,49.9230769 C309.895412,49.9230769 308.952848,49.5278332 308.171707,48.7373336 C307.390565,47.9468341 307,46.9929787 307,45.8757399 L307,31.7100586 C307,30.5928184 307.390565,29.6389652 308.171707,28.8484635 C308.952848,28.0579654 309.895412,27.6627216 310.999425,27.6627216 L314.498923,27.6627216 L315.295685,25.5125731 C315.493575,24.9961136 315.855496,24.5508048 316.381467,24.176636 C316.907435,23.8024637 317.446414,23.6153846 317.998421,23.6153846 L325.997272,23.6153846 C326.549279,23.6153846 327.088261,23.8024637 327.614229,24.176636 C328.140196,24.5508048 328.502121,24.9961136 328.700011,25.5125731 L329.496769,27.6627216 L332.996267,27.6627216 Z M321.997846,45.8757399 C323.924663,45.8757399 325.572849,45.1827442 326.942451,43.796735 C328.312053,42.4107257 328.996842,40.7427982 328.996842,38.7928993 C328.996842,36.8430003 328.312053,35.1750693 326.942451,33.7890601 C325.572849,32.4030508 323.924663,31.7100586 321.997846,31.7100586 C320.07103,31.7100586 318.422847,32.4030508 317.053245,33.7890601 C315.683643,35.1750693 314.998851,36.8430003 314.998851,38.7928993 C314.998851,40.7427982 315.683643,42.4107257 317.053245,43.796735 C318.422847,45.1827442 320.07103,45.8757399 321.997846,45.8757399 L321.997846,45.8757399 Z" id="Page-1"></path>
            <path d="M361.167184,34.48876 L361.167184,25.425832 L357.9625,25.425832 L357.9625,34.48876 C357.9625,35.5774054 357.744775,36.3768674 357.309316,36.88717 C356.873858,37.3974726 356.084602,37.65262 354.941524,37.65262 C354.288337,37.65262 353.767836,37.5607669 353.380006,37.377058 C352.992176,37.1933491 352.689401,36.9552115 352.471672,36.662638 C352.253943,36.3700645 352.111061,36.0332699 352.04302,35.652244 C351.97498,35.2712181 351.94096,34.883394 351.94096,34.48876 L351.94096,25.425832 L348.736276,25.425832 L348.736276,34.48876 C348.736276,36.4755379 349.277189,37.9451872 350.35903,38.897752 C351.440872,39.8503168 352.968355,40.326592 354.941524,40.326592 C356.887478,40.326592 358.411559,39.8469148 359.513812,38.887546 C360.616066,37.9281772 361.167184,36.4619299 361.167184,34.48876 L361.167184,34.48876 Z M363.730024,29.446996 L363.730024,40 L366.628528,40 L366.628528,34.468348 C366.628528,33.3933106 366.805431,32.6210643 367.15924,32.151586 C367.51305,31.6821077 368.08458,31.447372 368.873848,31.447372 C369.56786,31.447372 370.050939,31.6616959 370.3231,32.09035 C370.595262,32.5190041 370.73134,33.1687796 370.73134,34.039696 L370.73134,40 L373.629844,40 L373.629844,33.508984 C373.629844,32.8557967 373.572011,32.2604527 373.456342,31.722934 C373.340674,31.1854153 373.139958,30.7295519 372.854188,30.35533 C372.568419,29.9811081 372.177193,29.6885391 371.680498,29.477614 C371.183804,29.2666889 370.547636,29.161228 369.771976,29.161228 C369.159613,29.161228 368.560867,29.3007086 367.97572,29.579674 C367.390573,29.8586394 366.914298,30.3042969 366.54688,30.91666 L366.485644,30.91666 L366.485644,29.446996 L363.730024,29.446996 Z M378.19306,36.570784 L375.43744,36.570784 C375.464657,37.2784035 375.624549,37.8669437 375.917122,38.336422 C376.209696,38.8059003 376.583912,39.1835186 377.039782,39.469288 C377.495653,39.7550574 378.016153,39.9591754 378.6013,40.081648 C379.186447,40.2041206 379.785193,40.265356 380.397556,40.265356 C380.996311,40.265356 381.584852,40.2075226 382.163194,40.091854 C382.741537,39.9761854 383.255234,39.7754694 383.7043,39.4897 C384.153367,39.2039306 384.517377,38.8263123 384.796342,38.356834 C385.075308,37.8873557 385.214788,37.3056195 385.214788,36.611608 C385.214788,36.1217176 385.119533,35.7100797 384.92902,35.376682 C384.738507,35.0432843 384.486762,34.7643231 384.173776,34.53979 C383.860791,34.3152569 383.503584,34.1349527 383.102146,33.998872 C382.700708,33.8627913 382.289071,33.7471245 381.86722,33.651868 C381.458978,33.5566115 381.057546,33.4681604 380.662912,33.386512 C380.268278,33.3048636 379.917876,33.2130105 379.611694,33.11095 C379.305513,33.0088895 379.057169,32.8762128 378.866656,32.712916 C378.676143,32.5496192 378.580888,32.3386973 378.580888,32.080144 C378.580888,31.8624149 378.63532,31.6889146 378.744184,31.559638 C378.853049,31.4303614 378.985726,31.3317043 379.142218,31.263664 C379.298711,31.1956237 379.472211,31.1513981 379.662724,31.130986 C379.853237,31.1105739 380.03014,31.100368 380.193436,31.100368 C380.710543,31.100368 381.159603,31.199025 381.540628,31.396342 C381.921654,31.593659 382.132576,31.9712772 382.1734,32.529208 L384.92902,32.529208 C384.874588,31.8760207 384.707892,31.3351081 384.428926,30.906454 C384.149961,30.4777999 383.799559,30.1342013 383.377708,29.875648 C382.955858,29.6170947 382.476181,29.4333885 381.938662,29.324524 C381.401144,29.2156595 380.846623,29.161228 380.275084,29.161228 C379.703546,29.161228 379.145623,29.2122575 378.6013,29.314318 C378.056978,29.4163785 377.567095,29.5932807 377.131636,29.84503 C376.696178,30.0967793 376.345776,30.4403778 376.080418,30.875836 C375.815061,31.3112942 375.682384,31.8692166 375.682384,32.54962 C375.682384,33.0122943 375.777639,33.4035204 375.968152,33.72331 C376.158665,34.0430996 376.410411,34.3084529 376.723396,34.519378 C377.036382,34.7303031 377.393588,34.9004014 377.795026,35.029678 C378.196464,35.1589546 378.608102,35.2712195 379.029952,35.366476 C380.064166,35.5842051 380.870432,35.8019309 381.448774,36.01966 C382.027117,36.2373891 382.316284,36.5639778 382.316284,36.999436 C382.316284,37.2579893 382.255049,37.4723131 382.132576,37.642414 C382.010104,37.8125149 381.857015,37.9485935 381.673306,38.050654 C381.489597,38.1527145 381.28548,38.2275578 381.060946,38.275186 C380.836413,38.3228142 380.622089,38.346628 380.417968,38.346628 C380.132199,38.346628 379.85664,38.3126083 379.591282,38.244568 C379.325925,38.1765277 379.091189,38.0710667 378.887068,37.928182 C378.682947,37.7852973 378.516251,37.6015911 378.386974,37.377058 C378.257698,37.1525249 378.19306,36.8837696 378.19306,36.570784 L378.19306,36.570784 Z M392.349916,38.101684 C391.887242,38.101684 391.492614,38.006429 391.16602,37.815916 C390.839427,37.625403 390.577475,37.3770595 390.380158,37.070878 C390.182841,36.7646965 390.039959,36.40749 389.951506,35.999248 C389.863054,35.591006 389.818828,35.1759661 389.818828,34.754116 C389.818828,34.3186578 389.859652,33.896814 389.9413,33.488572 C390.022949,33.08033 390.162429,32.7197216 390.359746,32.406736 C390.557063,32.0937504 390.815613,31.838603 391.135402,31.641286 C391.455192,31.443969 391.853222,31.345312 392.329504,31.345312 C392.792179,31.345312 393.183405,31.443969 393.503194,31.641286 C393.822984,31.838603 394.084935,32.0971524 394.289056,32.416942 C394.493177,32.7367316 394.639462,33.100742 394.727914,33.508984 C394.816367,33.917226 394.860592,34.3322659 394.860592,34.754116 C394.860592,35.1759661 394.819769,35.591006 394.73812,35.999248 C394.656472,36.40749 394.516991,36.7646965 394.319674,37.070878 C394.122357,37.3770595 393.863808,37.625403 393.544018,37.815916 C393.224229,38.006429 392.826199,38.101684 392.349916,38.101684 L392.349916,38.101684 Z M387.022384,29.446996 L387.022384,43.694572 L389.920888,43.694572 L389.920888,38.693632 L389.961712,38.693632 C390.315522,39.2107386 390.767984,39.6019647 391.31911,39.867322 C391.870237,40.1326793 392.472385,40.265356 393.125572,40.265356 C393.901232,40.265356 394.578224,40.1156695 395.156566,39.816292 C395.734909,39.5169145 396.217988,39.1154825 396.605818,38.611984 C396.993648,38.1084855 397.282815,37.5301513 397.473328,36.876964 C397.663841,36.2237767 397.759096,35.5433835 397.759096,34.835764 C397.759096,34.0873203 397.663841,33.3695054 397.473328,32.682298 C397.282815,31.9950906 396.990246,31.3929426 396.595612,30.875836 C396.200978,30.3587294 395.704291,29.9436896 395.105536,29.630704 C394.506781,29.3177184 393.792369,29.161228 392.962276,29.161228 C392.309089,29.161228 391.710343,29.2905027 391.16602,29.549056 C390.621698,29.8076093 390.172638,30.2226491 389.818828,30.794188 L389.778004,30.794188 L389.778004,29.446996 L387.022384,29.446996 Z M399.689164,25.425832 L399.689164,40 L402.587668,40 L402.587668,25.425832 L399.689164,25.425832 Z M404.86474,32.692504 C404.905565,32.0121006 405.075663,31.4473742 405.37504,30.998308 C405.674418,30.5492418 406.055438,30.1886334 406.518112,29.916472 C406.980787,29.6443106 407.501288,29.4503986 408.07963,29.33473 C408.657973,29.2190614 409.23971,29.161228 409.824856,29.161228 C410.355571,29.161228 410.893082,29.1986496 411.437404,29.273494 C411.981727,29.3483384 412.478414,29.4946229 412.92748,29.712352 C413.376547,29.9300811 413.743959,30.2328561 414.029728,30.620686 C414.315498,31.0085159 414.45838,31.5222128 414.45838,32.161792 L414.45838,37.65262 C414.45838,38.1289024 414.485596,38.5847658 414.540028,39.020224 C414.594461,39.4556822 414.689716,39.7822709 414.825796,40 L411.886468,40 C411.832036,39.8367032 411.787811,39.6700069 411.75379,39.499906 C411.71977,39.3298051 411.695956,39.1563049 411.682348,38.9794 C411.219674,39.4556824 410.67536,39.789075 410.049388,39.979588 C409.423417,40.170101 408.783848,40.265356 408.13066,40.265356 C407.627162,40.265356 407.157691,40.2041206 406.722232,40.081648 C406.286774,39.9591754 405.905754,39.7686653 405.57916,39.510112 C405.252567,39.2515587 404.997419,38.92497 404.81371,38.530336 C404.630002,38.135702 404.538148,37.6662307 404.538148,37.121908 C404.538148,36.523153 404.643609,36.0298679 404.854534,35.642038 C405.065459,35.2542081 405.337617,34.9446292 405.671014,34.713292 C406.004412,34.4819548 406.385432,34.3084546 406.814086,34.192786 C407.242741,34.0771174 407.67479,33.9852643 408.110248,33.917224 C408.545707,33.8491837 408.974354,33.7947522 409.396204,33.753928 C409.818055,33.7131038 410.192271,33.6518684 410.518864,33.57022 C410.845458,33.4885716 411.104007,33.3695028 411.29452,33.21301 C411.485033,33.0565172 411.573484,32.8285855 411.559876,32.529208 C411.559876,32.2162224 411.508847,31.9678789 411.406786,31.78417 C411.304726,31.6004611 411.168647,31.4575785 410.998546,31.355518 C410.828446,31.2534575 410.631132,31.1854182 410.406598,31.151398 C410.182065,31.1173778 409.940526,31.100368 409.681972,31.100368 C409.110434,31.100368 408.661374,31.2228388 408.33478,31.467784 C408.008187,31.7127292 407.817677,32.1209651 407.763244,32.692504 L404.86474,32.692504 Z M411.559876,34.835764 C411.437404,34.9446285 411.284315,35.0296777 411.100606,35.090914 C410.916898,35.1521503 410.719583,35.2031798 410.508658,35.244004 C410.297733,35.2848282 410.076606,35.3188479 409.845268,35.346064 C409.613931,35.3732801 409.382598,35.4072998 409.15126,35.448124 C408.933531,35.4889482 408.719207,35.5433797 408.508282,35.61142 C408.297357,35.6794603 408.113651,35.7713134 407.957158,35.886982 C407.800666,36.0026506 407.674793,36.1489351 407.579536,36.32584 C407.48428,36.5027449 407.436652,36.7272746 407.436652,36.999436 C407.436652,37.2579893 407.48428,37.4757151 407.579536,37.65262 C407.674793,37.8295249 407.804068,37.9690055 407.967364,38.071066 C408.130661,38.1731265 408.321171,38.2445678 408.5389,38.285392 C408.75663,38.3262162 408.981159,38.346628 409.212496,38.346628 C409.784035,38.346628 410.226291,38.251373 410.539276,38.06086 C410.852262,37.870347 411.083596,37.6424153 411.233284,37.377058 C411.382973,37.1117007 411.474826,36.8429454 411.508846,36.570784 C411.542867,36.2986226 411.559876,36.0808968 411.559876,35.9176 L411.559876,34.835764 Z M419.06242,36.570784 L416.3068,36.570784 C416.334017,37.2784035 416.493909,37.8669437 416.786482,38.336422 C417.079056,38.8059003 417.453272,39.1835186 417.909142,39.469288 C418.365013,39.7550574 418.885514,39.9591754 419.47066,40.081648 C420.055807,40.2041206 420.654553,40.265356 421.266916,40.265356 C421.865671,40.265356 422.454212,40.2075226 423.032554,40.091854 C423.610897,39.9761854 424.124594,39.7754694 424.57366,39.4897 C425.022727,39.2039306 425.386737,38.8263123 425.665702,38.356834 C425.944668,37.8873557 426.084148,37.3056195 426.084148,36.611608 C426.084148,36.1217176 425.988893,35.7100797 425.79838,35.376682 C425.607867,35.0432843 425.356122,34.7643231 425.043136,34.53979 C424.730151,34.3152569 424.372944,34.1349527 423.971506,33.998872 C423.570068,33.8627913 423.158431,33.7471245 422.73658,33.651868 C422.328338,33.5566115 421.926906,33.4681604 421.532272,33.386512 C421.137638,33.3048636 420.787236,33.2130105 420.481054,33.11095 C420.174873,33.0088895 419.926529,32.8762128 419.736016,32.712916 C419.545503,32.5496192 419.450248,32.3386973 419.450248,32.080144 C419.450248,31.8624149 419.50468,31.6889146 419.613544,31.559638 C419.722409,31.4303614 419.855086,31.3317043 420.011578,31.263664 C420.168071,31.1956237 420.341571,31.1513981 420.532084,31.130986 C420.722597,31.1105739 420.8995,31.100368 421.062796,31.100368 C421.579903,31.100368 422.028963,31.199025 422.409988,31.396342 C422.791014,31.593659 423.001936,31.9712772 423.04276,32.529208 L425.79838,32.529208 C425.743948,31.8760207 425.577252,31.3351081 425.298286,30.906454 C425.019321,30.4777999 424.668919,30.1342013 424.247068,29.875648 C423.825218,29.6170947 423.345541,29.4333885 422.808022,29.324524 C422.270504,29.2156595 421.715983,29.161228 421.144444,29.161228 C420.572906,29.161228 420.014983,29.2122575 419.47066,29.314318 C418.926338,29.4163785 418.436455,29.5932807 418.000996,29.84503 C417.565538,30.0967793 417.215136,30.4403778 416.949778,30.875836 C416.684421,31.3112942 416.551744,31.8692166 416.551744,32.54962 C416.551744,33.0122943 416.646999,33.4035204 416.837512,33.72331 C417.028025,34.0430996 417.279771,34.3084529 417.592756,34.519378 C417.905742,34.7303031 418.262948,34.9004014 418.664386,35.029678 C419.065824,35.1589546 419.477462,35.2712195 419.899312,35.366476 C420.933526,35.5842051 421.739792,35.8019309 422.318134,36.01966 C422.896477,36.2373891 423.185644,36.5639778 423.185644,36.999436 C423.185644,37.2579893 423.124409,37.4723131 423.001936,37.642414 C422.879464,37.8125149 422.726375,37.9485935 422.542666,38.050654 C422.358958,38.1527145 422.15484,38.2275578 421.930306,38.275186 C421.705773,38.3228142 421.491449,38.346628 421.287328,38.346628 C421.001559,38.346628 420.726,38.3126083 420.460642,38.244568 C420.195285,38.1765277 419.960549,38.0710667 419.756428,37.928182 C419.552307,37.7852973 419.385611,37.6015911 419.256334,37.377058 C419.127058,37.1525249 419.06242,36.8837696 419.06242,36.570784 L419.06242,36.570784 Z M427.891744,25.425832 L427.891744,40 L430.790248,40 L430.790248,34.468348 C430.790248,33.3933106 430.967151,32.6210643 431.32096,32.151586 C431.67477,31.6821077 432.2463,31.447372 433.035568,31.447372 C433.72958,31.447372 434.212659,31.6616959 434.48482,32.09035 C434.756982,32.5190041 434.89306,33.1687796 434.89306,34.039696 L434.89306,40 L437.791564,40 L437.791564,33.508984 C437.791564,32.8557967 437.733731,32.2604527 437.618062,31.722934 C437.502394,31.1854153 437.301678,30.7295519 437.015908,30.35533 C436.730139,29.9811081 436.338913,29.6885391 435.842218,29.477614 C435.345524,29.2666889 434.709356,29.161228 433.933696,29.161228 C433.389374,29.161228 432.831451,29.3007086 432.259912,29.579674 C431.688374,29.8586394 431.218902,30.3042969 430.851484,30.91666 L430.790248,30.91666 L430.790248,25.425832 L427.891744,25.425832 Z" id="Unsplash"></path>
            <path d="M395.976177,44.1639422 L395.896443,44.1639422 C395.697106,44.1639422 395.560064,44.1373643 395.485313,44.0842078 C395.410561,44.0310513 395.373186,43.9380288 395.373186,43.8051375 C395.373186,43.6822131 395.404747,43.5916822 395.467871,43.5335423 C395.530994,43.4754023 395.625678,43.4463328 395.751924,43.4463328 L395.976177,43.4463328 L396.997774,43.4463328 C397.266879,43.4463328 397.437974,43.4720801 397.511064,43.5235755 C397.584154,43.5750709 397.620699,43.6689239 397.620699,43.8051375 C397.620699,43.9380288 397.57751,44.0310513 397.49113,44.0842078 C397.404751,44.1373643 397.240301,44.1639422 396.997774,44.1639422 L396.783488,44.1639422 L396.783488,46.8948445 C396.783488,47.2636179 396.80093,47.5318881 396.835814,47.6996634 C396.870698,47.8674386 396.928006,48.0210919 397.007741,48.1606277 C397.124021,48.3632869 397.28598,48.521093 397.493622,48.6340506 C397.701265,48.7470082 397.931329,48.8034861 398.183823,48.8034861 C398.658909,48.8034861 399.005252,48.6606301 399.222861,48.3749139 C399.440471,48.0891976 399.549274,47.6274073 399.549274,46.9895291 L399.549274,44.1639422 L399.285154,44.1639422 C399.026016,44.1639422 398.852429,44.1381949 398.764389,44.0866995 C398.676348,44.0352041 398.632329,43.9413511 398.632329,43.8051375 C398.632329,43.6689239 398.667212,43.5750709 398.73698,43.5235755 C398.806748,43.4720801 398.951265,43.4463328 399.170536,43.4463328 L400.271867,43.4463328 L400.51107,43.4463328 C400.630672,43.4463328 400.721203,43.4762329 400.782665,43.536034 C400.844127,43.5958351 400.874858,43.6855353 400.874858,43.8051375 C400.874858,43.9380288 400.838313,44.0310513 400.765223,44.0842078 C400.692133,44.1373643 400.559244,44.1639422 400.366551,44.1639422 L400.296784,44.1639422 L400.296784,47.0991639 C400.296784,47.9064784 400.116553,48.5119553 399.756085,48.9156126 C399.395617,49.3192699 398.853263,49.5210955 398.129005,49.5210955 C397.474516,49.5210955 396.952095,49.3192699 396.561727,48.9156126 C396.171358,48.5119553 395.976177,47.9679397 395.976177,47.2835496 L395.976177,44.1639422 Z M403.024585,50.6323934 L404.220601,50.6323934 C404.346848,50.6323934 404.441531,50.6622934 404.504655,50.7220945 C404.567778,50.7818956 404.599339,50.8715959 404.599339,50.991198 C404.599339,51.1207671 404.568609,51.2121284 404.507146,51.265285 C404.445684,51.3184415 404.336881,51.3450193 404.180734,51.3450193 L401.983055,51.3450193 C401.850164,51.3450193 401.749666,51.3151192 401.681559,51.2553182 C401.613453,51.1955171 401.5794,51.1074779 401.5794,50.991198 C401.5794,50.8583068 401.621758,50.7652842 401.706476,50.7121277 C401.791195,50.6589712 401.94817,50.6323934 402.177408,50.6323934 L402.272092,50.6323934 L402.272092,45.4596258 L402.177408,45.4596258 C401.94817,45.4596258 401.791195,45.4330479 401.706476,45.3798914 C401.621758,45.3267349 401.5794,45.2337124 401.5794,45.1008211 C401.5794,44.9845412 401.613453,44.8973326 401.681559,44.8391927 C401.749666,44.7810527 401.850164,44.7519832 401.983055,44.7519832 L402.740532,44.7519832 C402.8402,44.7519832 402.912459,44.7685944 402.957309,44.8018172 C403.00216,44.83504 403.024585,44.8865346 403.024585,44.9563025 L403.024585,45.4396922 C403.250501,45.2071324 403.500499,45.0327152 403.774587,44.9164353 C404.048675,44.8001555 404.343523,44.7420164 404.65914,44.7420164 C405.326919,44.7420164 405.885054,44.9679282 406.333562,45.4197586 C406.78207,45.871589 407.006321,46.4380296 407.006321,47.1190975 C407.006321,47.7735871 406.793698,48.3117887 406.368446,48.7337186 C405.943194,49.1556484 405.400009,49.3666102 404.738874,49.3666102 C404.386712,49.3666102 404.062795,49.3043183 403.767112,49.1797327 C403.471429,49.0551471 403.223922,48.8765771 403.024585,48.6440174 L403.024585,50.6323934 Z M404.569439,48.6340506 C405.031236,48.6340506 405.409971,48.4887029 405.705654,48.1980032 C406.001337,47.9073035 406.149176,47.5310607 406.149176,47.0692635 C406.149176,46.6174331 406.000506,46.2445125 405.703162,45.9504905 C405.405818,45.6564685 405.027914,45.5094598 404.569439,45.5094598 C404.110964,45.5094598 403.735552,45.655638 403.443191,45.9479988 C403.15083,46.2403597 403.004652,46.6141108 403.004652,47.0692635 C403.004652,47.5277384 403.149999,47.9031507 403.440699,48.1955115 C403.731399,48.4878724 404.107642,48.6340506 404.569439,48.6340506 L404.569439,48.6340506 Z M410.157711,43.5509842 L409.310533,43.5509842 C408.988272,43.5509842 408.786446,43.5252369 408.70505,43.4737415 C408.623655,43.4222461 408.582957,43.3283931 408.582957,43.1921795 C408.582957,43.0725773 408.61701,42.9828771 408.685117,42.923076 C408.753224,42.8632749 408.85206,42.8333748 408.981629,42.8333748 L410.626151,42.8333748 C410.715852,42.8333748 410.785619,42.8516471 410.835453,42.8881922 C410.885288,42.9247373 410.910204,42.9745708 410.910204,43.0376941 L410.910204,48.6539842 L412.474991,48.6539842 C412.601238,48.6539842 412.69343,48.6813926 412.75157,48.7362103 C412.80971,48.7910279 412.838779,48.8782365 412.838779,48.9978387 C412.838779,49.1340522 412.810541,49.2279053 412.754062,49.2794007 C412.697583,49.3308961 412.591271,49.3566434 412.435124,49.3566434 L408.757376,49.3566434 C408.627807,49.3566434 408.528971,49.3267433 408.460864,49.2669422 C408.392757,49.2071411 408.358704,49.1174408 408.358704,48.9978387 C408.358704,48.8815588 408.393588,48.7951807 408.463356,48.738702 C408.533124,48.6822232 408.637774,48.6539842 408.77731,48.6539842 L410.157711,48.6539842 L410.157711,43.5509842 Z M416.672896,48.7835525 C417.184527,48.7835525 417.603959,48.6215937 417.931204,48.2976712 C418.258448,47.9737487 418.422068,47.5609613 418.422068,47.0592967 C418.422068,46.5576321 418.257618,46.1431836 417.928712,45.8159388 C417.599806,45.488694 417.181205,45.325074 416.672896,45.325074 C416.164586,45.325074 415.746816,45.488694 415.419571,45.8159388 C415.092326,46.1431836 414.928706,46.5576321 414.928706,47.0592967 C414.928706,47.5642836 415.091495,47.9779015 415.417079,48.3001629 C415.742663,48.6224243 416.161264,48.7835525 416.672896,48.7835525 L416.672896,48.7835525 Z M419.28918,47.0592967 C419.28918,47.7702651 419.046657,48.3516557 418.561604,48.8034861 C418.07655,49.2553165 417.446987,49.4812283 416.672896,49.4812283 C415.902126,49.4812283 415.274224,49.2553165 414.789171,48.8034861 C414.304118,48.3516557 414.061595,47.7702651 414.061595,47.0592967 C414.061595,46.3483283 414.304118,45.7677682 414.789171,45.3175989 C415.274224,44.8674297 415.902126,44.6423484 416.672896,44.6423484 C417.443665,44.6423484 418.072397,44.8682602 418.559112,45.3200906 C419.045826,45.771921 419.28918,46.3516506 419.28918,47.0592967 L419.28918,47.0592967 Z M423.960507,47.1539812 C423.777781,47.0941802 423.600872,47.0501606 423.429775,47.0219212 C423.258677,46.9936818 423.088413,46.9795623 422.918976,46.9795623 C422.407345,46.9795623 422.003694,47.0659403 421.708011,47.238699 C421.412327,47.4114577 421.264488,47.644014 421.264488,47.9363748 C421.264488,48.16229 421.35668,48.348335 421.541067,48.4945154 C421.725453,48.6406958 421.960501,48.713785 422.246218,48.713785 C422.668147,48.713785 423.05934,48.6033207 423.419808,48.382389 C423.780276,48.1614572 423.960507,47.9313926 423.960507,47.6921883 L423.960507,47.1539812 Z M424.000374,48.7237518 C423.727947,48.9696006 423.431437,49.1573068 423.110837,49.2868758 C422.790237,49.4164448 422.460505,49.4812283 422.121633,49.4812283 C421.626613,49.4812283 421.227114,49.3433557 420.923125,49.0676062 C420.619136,48.7918568 420.467144,48.4330557 420.467144,47.9911922 C420.467144,47.4662716 420.66897,47.0592981 421.072627,46.7702596 C421.476285,46.481221 422.043556,46.3367039 422.774458,46.3367039 C422.96715,46.3367039 423.161501,46.3491623 423.357515,46.3740794 C423.55353,46.3989965 423.754525,46.4380327 423.960507,46.4911893 L423.960507,46.4563055 C423.960507,46.074243 423.869145,45.7918533 423.68642,45.6091277 C423.503694,45.4264022 423.219643,45.3350408 422.834259,45.3350408 C422.575121,45.3350408 422.286086,45.4048077 421.967147,45.5443436 C421.648208,45.6838794 421.437246,45.7536463 421.334256,45.7536463 C421.237909,45.7536463 421.158176,45.7146101 421.095053,45.6365364 C421.031929,45.5584628 421.000368,45.4579653 421.000368,45.3350408 C421.000368,45.1390262 421.183921,44.9729145 421.551033,44.836701 C421.918146,44.7004874 422.387411,44.6323816 422.958844,44.6323816 C423.543565,44.6323816 423.985422,44.7810515 424.284428,45.0783958 C424.583433,45.3757401 424.732933,45.8151053 424.732933,46.3965047 L424.732933,48.6539842 L424.97712,48.6539842 C425.213002,48.6539842 425.370808,48.6789009 425.450543,48.7287352 C425.530278,48.7785694 425.570144,48.8682697 425.570144,48.9978387 C425.570144,49.1174408 425.536922,49.2071411 425.470476,49.2669422 C425.404031,49.3267433 425.304364,49.3566434 425.171472,49.3566434 L424.389079,49.3566434 C424.296055,49.3566434 424.219644,49.3284044 424.159843,49.2719256 C424.100041,49.2154468 424.060175,49.1340521 424.040241,49.0277391 L424.000374,48.7237518 Z M430.535492,49.3566434 C430.465724,49.3566434 430.416721,49.3392016 430.388482,49.3043177 C430.360242,49.2694337 430.346123,49.2021585 430.346123,49.10249 L430.346123,48.6938514 C430.146786,48.9430225 429.897618,49.1365426 429.598613,49.2744173 C429.299607,49.412292 428.97569,49.4812283 428.62685,49.4812283 C427.998939,49.4812283 427.473196,49.2578082 427.049605,48.8109612 C426.626014,48.3641143 426.414221,47.8084709 426.414221,47.1440145 C426.414221,46.456302 426.640133,45.8840475 427.091963,45.4272337 C427.543794,44.9704199 428.106912,44.7420164 428.781336,44.7420164 C429.123531,44.7420164 429.430837,44.8026471 429.703264,44.9239104 C429.975691,45.0451737 430.209909,45.2237437 430.405923,45.4596258 L430.405923,43.5509842 L430.141803,43.5509842 C429.852765,43.5509842 429.665889,43.5252369 429.581171,43.4737415 C429.496453,43.4222461 429.454094,43.3283931 429.454094,43.1921795 C429.454094,43.0725773 429.488147,42.9828771 429.556254,42.923076 C429.624361,42.8632749 429.723197,42.8333748 429.852766,42.8333748 L430.874363,42.8333748 C430.974031,42.8333748 431.04629,42.849986 431.091141,42.8832088 C431.135992,42.9164316 431.158417,42.9679262 431.158417,43.0376941 L431.158417,48.6539842 L431.38267,48.6539842 C431.545461,48.6539842 431.663401,48.6813926 431.736491,48.7362103 C431.809581,48.7910279 431.846126,48.8782365 431.846126,48.9978387 C431.846126,49.1107963 431.814564,49.1988354 431.751441,49.2619588 C431.688318,49.3250821 431.603601,49.3566434 431.497288,49.3566434 L430.535492,49.3566434 Z M427.271366,47.1190975 C427.271366,47.5775724 427.419205,47.9529847 427.714888,48.2453455 C428.010571,48.5377063 428.385984,48.6838846 428.841136,48.6838846 C429.299611,48.6838846 429.676685,48.5318924 429.972368,48.2279036 C430.268051,47.9239148 430.41589,47.5377053 430.41589,47.0692635 C430.41589,46.6074662 430.268881,46.2270706 429.974859,45.9280652 C429.680837,45.6290598 429.302934,45.4795594 428.841136,45.4795594 C428.372695,45.4795594 427.99396,45.6307209 427.704921,45.9330486 C427.415883,46.2353763 427.271366,46.630722 427.271366,47.1190975 L427.271366,47.1190975 Z M433.532397,47.2735828 C433.558975,47.7519915 433.720934,48.1215898 434.018278,48.382389 C434.315622,48.6431881 434.721765,48.7735857 435.236719,48.7735857 C435.625426,48.7735857 436.049011,48.669766 436.507486,48.4621233 C436.965961,48.2544807 437.243367,48.1506609 437.339713,48.1506609 C437.439382,48.1506609 437.522438,48.1822221 437.588883,48.2453455 C437.655329,48.3084689 437.688551,48.3865413 437.688551,48.4795652 C437.688551,48.5759114 437.653668,48.6639506 437.5839,48.7436853 C437.514132,48.8234201 437.402837,48.9014926 437.250012,48.9779051 C436.917784,49.1406969 436.574763,49.2652806 436.22094,49.35166 C435.867117,49.4380393 435.515791,49.4812283 435.166952,49.4812283 C434.409471,49.4812283 433.803164,49.2627915 433.348011,48.8259114 C432.892858,48.3890313 432.665286,47.8101323 432.665286,47.0891971 C432.665286,46.3549727 432.906147,45.7602931 433.387878,45.3051404 C433.869609,44.8499878 434.497511,44.6224148 435.271603,44.6224148 C435.972604,44.6224148 436.553995,44.8350377 437.015792,45.2602898 C437.47759,45.685542 437.708485,46.200488 437.708485,46.8051434 C437.708485,46.9911912 437.669449,47.1157749 437.591375,47.1788982 C437.513301,47.2420216 437.301509,47.2735828 436.955992,47.2735828 L436.881241,47.2735828 L433.532397,47.2735828 Z M433.557314,46.6207576 L436.801506,46.6207576 C436.751672,46.225406 436.586391,45.9073023 436.305658,45.6664368 C436.024925,45.4255714 435.680244,45.3051404 435.271603,45.3051404 C434.829739,45.3051404 434.457649,45.4214186 434.155322,45.6539783 C433.852994,45.8865381 433.65366,46.2087946 433.557314,46.6207576 L433.557314,46.6207576 Z M440.909709,48.6539842 L442.564197,48.6539842 C442.693766,48.6539842 442.789281,48.6813926 442.850743,48.7362103 C442.912205,48.7910279 442.942936,48.8782365 442.942936,48.9978387 C442.942936,49.1340522 442.913866,49.2279053 442.855726,49.2794007 C442.797586,49.3308961 442.690444,49.3566434 442.534297,49.3566434 L439.275154,49.3566434 C439.145585,49.3566434 439.04758,49.3267433 438.981134,49.2669422 C438.914688,49.2071411 438.881466,49.1174408 438.881466,48.9978387 C438.881466,48.8815588 438.915519,48.7951807 438.983626,48.738702 C439.051732,48.6822232 439.157213,48.6539842 439.300071,48.6539842 L440.167183,48.6539842 L440.167183,45.4596258 L439.828312,45.4596258 C439.50605,45.4596258 439.305055,45.4338785 439.225321,45.3823831 C439.145586,45.3308877 439.105719,45.2370347 439.105719,45.1008211 C439.105719,44.9845412 439.138111,44.8973326 439.202895,44.8391927 C439.26768,44.7810527 439.366516,44.7519832 439.499407,44.7519832 L440.635622,44.7519832 C440.725324,44.7519832 440.79343,44.7694249 440.839942,44.8043089 C440.886454,44.8391928 440.909709,44.8898569 440.909709,44.9563025 L440.909709,45.8034803 C441.225326,45.4081287 441.554227,45.1141111 441.896422,44.9214187 C442.238617,44.7287264 442.607385,44.6323816 443.002737,44.6323816 C443.29842,44.6323816 443.53762,44.6921818 443.720346,44.811784 C443.903071,44.9313861 443.994433,45.0858699 443.994433,45.27524 C443.994433,45.3981645 443.948752,45.5069676 443.857389,45.6016526 C443.766027,45.6963377 443.665529,45.7436795 443.555894,45.7436795 C443.479481,45.7436795 443.350745,45.6930154 443.16968,45.5916858 C442.988616,45.4903562 442.826657,45.4396922 442.683799,45.4396922 C442.424661,45.4396922 442.151407,45.5318841 441.86403,45.7162708 C441.576653,45.9006575 441.258549,46.1921834 440.909709,46.5908572 L440.909709,48.6539842 Z" id="Uploader"></path>
        </g>
    </g>
</svg>